<?xml version="1.0" encoding="UTF-8" standalone="no"?><!DOCTYPE svg PUBLIC "-//W3C//DTD SVG 1.1//EN" "http://www.w3.org/Graphics/SVG/1.1/DTD/svg11.dtd"><svg width="100%" height="100%" viewBox="0 0 225 249" version="1.1" xmlns="http://www.w3.org/2000/svg" xmlns:xlink="http://www.w3.org/1999/xlink" xml:space="preserve" xmlns:serif="http://www.serif.com/" style="fill-rule:evenodd;clip-rule:evenodd;stroke-linejoin:round;stroke-miterlimit:2;"><path d="M164.804,27.191l6.047,-6.047c12.198,-12.198 32.004,-12.198 44.201,0c12.198,12.198 12.198,32.004 0,44.201l-36.742,36.743c5.348,10.459 8.153,22.059 8.153,33.852l-0,80.997c-0,17.262 -13.994,31.255 -31.255,31.255l-86.215,0c-10.968,0 -20.617,-5.649 -26.194,-14.197c-11.244,4.459 -24.56,2.144 -33.651,-6.947c-12.197,-12.198 -12.197,-32.004 0,-44.201l28.59,-28.59l-0,-14.071c-0,-16.106 4.305,-31.92 12.47,-45.803l7.061,-12.007c1.07,-1.82 1.635,-3.893 1.635,-6.005l-0,-45.116c-0,-17.262 13.993,-31.255 31.255,-31.255l43.652,0c15.884,-0 29.001,11.849 30.993,27.191Z" style="fill:#faf8f4;"/><clipPath id="_clip1"><path d="M164.804,27.191l6.047,-6.047c12.198,-12.198 32.004,-12.198 44.201,0c12.198,12.198 12.198,32.004 0,44.201l-36.742,36.743c5.348,10.459 8.153,22.059 8.153,33.852l-0,80.997c-0,17.262 -13.994,31.255 -31.255,31.255l-86.215,0c-10.968,0 -20.617,-5.649 -26.194,-14.197c-11.244,4.459 -24.56,2.144 -33.651,-6.947c-12.197,-12.198 -12.197,-32.004 0,-44.201l28.59,-28.59l-0,-14.071c-0,-16.106 4.305,-31.92 12.47,-45.803l7.061,-12.007c1.07,-1.82 1.635,-3.893 1.635,-6.005l-0,-45.116c-0,-17.262 13.993,-31.255 31.255,-31.255l43.652,0c15.884,-0 29.001,11.849 30.993,27.191Z"/></clipPath><g clip-path="url(#_clip1)"><rect x="68.993" y="127.618" width="86.215" height="67.822" style="fill:#80b3dd;"/></g><path d="M133.811,31.255l0,41.159c0,10.271 2.77,20.351 8.019,29.179c2.426,4.082 5.05,8.495 7.325,12.322c3.962,6.664 6.053,14.273 6.053,22.025l-0,80.997l-86.215,0l-0,-76.751c-0,-10.535 2.816,-20.878 8.156,-29.959c2.352,-3.998 4.871,-8.283 7.061,-12.007c3.895,-6.623 5.949,-14.166 5.949,-21.849l-0,-45.116l43.652,-0Z" style="fill:#edf0f1;"/><clipPath id="_clip2"><path d="M133.811,31.255l0,41.159c0,10.271 2.77,20.351 8.019,29.179c2.426,4.082 5.05,8.495 7.325,12.322c3.962,6.664 6.053,14.273 6.053,22.025l-0,80.997l-86.215,0l-0,-76.751c-0,-10.535 2.816,-20.878 8.156,-29.959c2.352,-3.998 4.871,-8.283 7.061,-12.007c3.895,-6.623 5.949,-14.166 5.949,-21.849l-0,-45.116l43.652,-0Z"/></clipPath><g clip-path="url(#_clip2)"><rect x="68.993" y="127.618" width="86.215" height="67.822" style="fill:#80b3dd;"/></g><path d="M150.066,31.255l0,41.159c0,7.347 1.982,14.558 5.736,20.873l7.325,12.322c5.456,9.177 8.336,19.655 8.336,30.331l-0,80.997c-0,8.978 -7.278,16.255 -16.255,16.255l-86.215,0c-8.978,0 -16.255,-7.277 -16.255,-16.255l-0,-76.751c-0,-13.432 3.59,-26.621 10.4,-38.2l7.061,-12.006c2.426,-4.125 3.705,-8.823 3.705,-13.609l-0,-45.116c-0,-8.977 7.277,-16.255 16.255,-16.255l43.652,0c8.978,-0 16.255,7.278 16.255,16.255Zm-16.255,-0l-43.652,-0l-0,45.116c-0,7.683 -2.054,15.226 -5.949,21.849l-7.061,12.007c-5.34,9.081 -8.156,19.424 -8.156,29.959l-0,76.751l86.215,0l-0,-80.997c-0,-7.752 -2.091,-15.361 -6.053,-22.025l-7.325,-12.322c-5.249,-8.828 -8.019,-18.908 -8.019,-29.179l0,-41.159Z" style="fill:#4b6d83;"/><rect x="90.274" y="31.255" width="43.652" height="9.016" style="fill:#80b3dd;"/><path d="M181.458,31.751c6.343,-6.344 16.644,-6.344 22.988,-0c6.343,6.343 6.343,16.644 -0,22.988l-161.703,161.702c-6.344,6.344 -16.644,6.344 -22.988,0c-6.344,-6.343 -6.344,-16.644 -0,-22.988l161.703,-161.702Z" style="fill:#5c4b3b;"/></svg>