<?xml version="1.0" encoding="UTF-8" standalone="no"?><!DOCTYPE svg PUBLIC "-//W3C//DTD SVG 1.1//EN" "http://www.w3.org/Graphics/SVG/1.1/DTD/svg11.dtd"><svg width="100%" height="100%" viewBox="0 0 239 269" version="1.1" xmlns="http://www.w3.org/2000/svg" xmlns:xlink="http://www.w3.org/1999/xlink" xml:space="preserve" xmlns:serif="http://www.serif.com/" style="fill-rule:evenodd;clip-rule:evenodd;stroke-linecap:round;stroke-linejoin:round;stroke-miterlimit:1.5;"><path d="M146.192,20l0,53.708c0,10.63 2.867,21.063 8.299,30.2c3.388,5.698 7.275,12.237 10.57,17.78c4.881,8.21 7.457,17.584 7.457,27.135c-0,30.799 -0,99.639 -0,99.639l-106.078,0l-0,-98.141c-0,-10.535 2.816,-20.878 8.157,-29.959c3.379,-5.747 7.269,-12.362 10.557,-17.952c4.798,-8.159 7.328,-17.453 7.328,-26.918l0,-55.492l53.71,0Z" style="fill:#edf0f1;"/><clipPath id="_clip1"><path d="M146.192,20l0,53.708c0,10.63 2.867,21.063 8.299,30.2c3.388,5.698 7.275,12.237 10.57,17.78c4.881,8.21 7.457,17.584 7.457,27.135c-0,30.799 -0,99.639 -0,99.639l-106.078,0l-0,-98.141c-0,-10.535 2.816,-20.878 8.157,-29.959c3.379,-5.747 7.269,-12.362 10.557,-17.952c4.798,-8.159 7.328,-17.453 7.328,-26.918l0,-55.492l53.71,0Z"/></clipPath><g clip-path="url(#_clip1)"><rect x="66.44" y="138.565" width="106.078" height="83.447" style="fill:#80b3dd;"/></g><path d="M166.192,20l0,53.708c0,7.032 1.897,13.935 5.491,19.98l10.57,17.78c6.719,11.302 10.265,24.207 10.265,37.355l-0,99.639c-0,11.046 -8.954,20 -20,20l-106.078,0c-11.046,0 -20,-8.954 -20,-20l-0,-98.141c-0,-14.1 3.769,-27.944 10.917,-40.098l10.557,-17.952c2.991,-5.086 4.568,-10.879 4.568,-16.779l0,-55.492c0,-11.046 8.955,-20 20,-20l53.71,0c11.046,-0 20,8.954 20,20Zm-20,0l-53.71,0l0,55.492c0,9.465 -2.53,18.759 -7.328,26.918l-10.557,17.952c-5.341,9.081 -8.157,19.424 -8.157,29.959l-0,98.141l106.078,0l-0,-99.639c-0,-9.551 -2.576,-18.925 -7.457,-27.135l-10.57,-17.78c-5.432,-9.137 -8.299,-19.57 -8.299,-30.2l0,-53.708Z" style="fill:#4b6d83;"/><rect x="92.624" y="20" width="53.71" height="11.093" style="fill:#80b3dd;"/><path d="M218.958,34.752l-198.958,198.958" style="fill:none;stroke:#5c4b3b;stroke-width:40px;"/></svg>