<?xml version="1.0" encoding="UTF-8" standalone="no"?><!DOCTYPE svg PUBLIC "-//W3C//DTD SVG 1.1//EN" "http://www.w3.org/Graphics/SVG/1.1/DTD/svg11.dtd"><svg width="100%" height="100%" viewBox="0 0 152 233" version="1.1" xmlns="http://www.w3.org/2000/svg" xmlns:xlink="http://www.w3.org/1999/xlink" xml:space="preserve" xmlns:serif="http://www.serif.com/" style="fill-rule:evenodd;clip-rule:evenodd;stroke-linejoin:round;stroke-miterlimit:2;"><path d="M54.985,152.416l-10.355,-42.061c6.246,-1.522 12.158,-3.281 17.736,-5.277c5.581,-1.997 10.683,-4.205 15.307,-6.625c4.623,-2.423 8.629,-5.144 12.017,-8.162c3.389,-3.021 6.006,-6.399 7.852,-10.135c1.849,-3.738 2.774,-7.774 2.774,-12.107c-0,-4.233 -1.043,-7.885 -3.13,-10.956c-2.083,-3.075 -4.965,-5.48 -8.647,-7.216c-3.682,-1.735 -7.929,-2.603 -12.739,-2.603c-7.073,-0 -14.127,2.478 -21.161,7.435c-7.03,4.954 -13.551,13.079 -19.563,24.376l-35.076,-32.517c9.677,-14.835 21.179,-26.305 34.505,-34.41c13.326,-8.105 27.3,-12.158 41.921,-12.158c14.074,0 26.757,2.869 38.05,8.608c11.297,5.738 20.25,13.568 26.859,23.489c6.61,9.921 9.915,21.047 9.915,33.378c-0,7.908 -1.626,15.718 -4.877,23.429c-3.252,7.711 -7.825,14.927 -13.72,21.647c-5.892,6.716 -12.816,12.61 -20.77,17.68c-7.955,5.068 -16.696,9.035 -26.224,11.903l-3.054,12.282l-27.62,0Zm-11.587,51.706c0,-8.399 2.55,-15.271 7.651,-20.615c5.104,-5.345 11.766,-8.017 19.984,-8.017c8.766,-0 15.563,2.482 20.39,7.446c4.827,4.96 7.24,12.022 7.24,21.186c0,8.402 -2.55,15.275 -7.651,20.62c-5.101,5.344 -11.76,8.016 -19.979,8.016c-8.769,0 -15.567,-2.482 -20.394,-7.446c-4.827,-4.964 -7.241,-12.027 -7.241,-21.19Z" style="fill:#b89c83;fill-rule:nonzero;"/></svg>