<?xml version="1.0" encoding="UTF-8" standalone="no"?><!DOCTYPE svg PUBLIC "-//W3C//DTD SVG 1.1//EN" "http://www.w3.org/Graphics/SVG/1.1/DTD/svg11.dtd"><svg width="100%" height="100%" viewBox="0 0 225 246" version="1.1" xmlns="http://www.w3.org/2000/svg" xmlns:xlink="http://www.w3.org/1999/xlink" xml:space="preserve" xmlns:serif="http://www.serif.com/" style="fill-rule:evenodd;clip-rule:evenodd;stroke-linecap:round;stroke-linejoin:round;stroke-miterlimit:1.5;"><path d="M27.768,123.114c-4.282,-11.915 -5.584,-24.662 -3.897,-37.083c1.892,-13.922 12.841,-24.87 26.762,-26.762c3.854,-0.524 7.74,-0.76 11.622,-0.708c3.142,-21.23 14.587,-39.77 30.936,-52.192c11.176,-8.492 26.642,-8.492 37.818,-0c11.4,8.662 20.416,20.298 25.895,33.746l13.947,-13.947c12.198,-12.198 32.004,-12.198 44.201,0c12.198,12.198 12.198,32.004 0,44.201l-14.845,14.845c0.044,0.271 0.085,0.543 0.122,0.817c1.688,12.42 0.386,25.168 -3.896,37.083c8.266,6.685 12.744,17.307 11.349,28.255c-2.984,23.418 -16.495,45.218 -38.498,57.921c-6.595,3.808 -13.516,6.544 -20.562,8.265l-0.167,1.087c-0.265,1.732 -0.831,3.404 -1.673,4.941l-3.026,5.52c-0.856,1.561 -1.983,2.958 -3.328,4.124l-5.703,4.944c-1.236,1.071 -2.638,1.933 -4.152,2.551l-6.29,2.571c-0.651,0.266 -1.321,0.486 -2.003,0.658c-1.289,0.325 -2.597,0.568 -3.917,0.727l-2.631,0.317c-2.387,0.287 -4.798,0.298 -7.187,0.032c-2.206,-0.245 -4.426,-0.486 -6.583,-1.016c-0.776,-0.19 -1.535,-0.443 -2.27,-0.754l-7.16,-3.033c-1.663,-0.704 -3.185,-1.703 -4.493,-2.948l-5.576,-5.309c-1.262,-1.201 -2.305,-2.613 -3.082,-4.173l-2.554,-5.123c-0.711,-1.427 -1.191,-2.959 -1.42,-4.537l-0.086,-0.594c-1.964,-0.481 -3.918,-1.041 -5.858,-1.682l-16.214,16.214c-12.197,12.198 -32.003,12.198 -44.201,-0c-12.197,-12.198 -12.197,-32.004 0,-44.201l13.756,-13.756c-3.296,-7.211 -5.484,-14.887 -6.485,-22.746c-1.395,-10.948 3.083,-21.57 11.349,-28.255Zm83.502,-37.366l2.996,-2.995c1.483,-3.825 2.294,-7.984 2.294,-12.331c0,-6.135 -1.622,-11.894 -4.46,-16.873c-2.837,4.979 -4.46,10.738 -4.46,16.873c0,5.51 1.309,10.716 3.63,15.326Zm20.354,87.738c4.96,-0.221 9.94,-1.602 14.533,-4.254c4.591,-2.651 8.276,-6.272 10.947,-10.455c-4.958,0.221 -9.937,1.602 -14.528,4.253c-4.593,2.651 -8.283,6.27 -10.952,10.456Zm-48.299,-59.792c-3.635,-3.49 -7.895,-5.951 -12.412,-7.384c1.433,4.517 3.894,8.777 7.383,12.413l5.029,-5.029Z" style="fill:#faf8f4;"/><path d="M106.277,187.957c0.006,-0.253 -0.107,-0.494 -0.304,-0.653c-0.197,-0.158 -0.457,-0.216 -0.703,-0.155c-11.37,2.8 -23.795,1.385 -34.726,-4.926c-13.219,-7.632 -21.328,-20.735 -23.121,-34.804c13.081,-5.483 28.483,-5.012 41.702,2.62c6.826,3.942 12.29,9.342 16.225,15.581c0.191,0.303 0.558,0.445 0.903,0.35c0.345,-0.095 0.588,-0.404 0.597,-0.762c0.185,-7.039 0.375,-14.077 0.567,-21.116c0.007,-0.235 -0.089,-0.461 -0.261,-0.62c-0.173,-0.159 -0.406,-0.235 -0.64,-0.21c-13.675,1.503 -27.887,-2.984 -38.362,-13.459c-10.783,-10.783 -15.22,-25.524 -13.312,-39.564c14.04,-1.908 28.781,2.529 39.563,13.312c5.875,5.875 9.867,12.925 11.974,20.397c0.109,0.386 0.484,0.635 0.883,0.586c0.398,-0.05 0.701,-0.383 0.712,-0.785c0.153,-5.622 0.305,-11.244 0.454,-16.867c0.006,-0.231 -0.087,-0.455 -0.256,-0.614c-9.558,-8.971 -15.532,-21.716 -15.532,-35.846c0,-15.977 7.639,-30.185 19.46,-39.167c11.821,8.982 19.46,23.19 19.46,39.167c0,14.074 -5.927,26.774 -15.418,35.74c-0.168,0.158 -0.26,0.381 -0.254,0.612c0.104,3.955 0.232,9.345 0.406,16.735c0.009,0.402 0.31,0.736 0.709,0.787c0.398,0.052 0.774,-0.195 0.885,-0.581c2.124,-7.385 6.093,-14.35 11.907,-20.164c10.783,-10.783 25.523,-15.22 39.564,-13.312c1.907,14.04 -2.53,28.781 -13.312,39.564c-10.477,10.476 -24.689,14.962 -38.366,13.459c-0.233,-0.026 -0.466,0.05 -0.638,0.209c-0.173,0.158 -0.269,0.384 -0.263,0.618c0.148,6.221 0.317,13.255 0.512,21.21c0.009,0.358 0.252,0.669 0.597,0.764c0.346,0.095 0.713,-0.048 0.904,-0.352c3.939,-6.278 9.423,-11.711 16.283,-15.672c13.219,-7.632 28.621,-8.103 41.701,-2.621c-1.792,14.07 -9.901,27.173 -23.12,34.805c-10.954,6.324 -23.407,7.731 -34.795,4.908c-0.247,-0.061 -0.507,-0.003 -0.705,0.156c-0.198,0.158 -0.31,0.4 -0.303,0.654c0.175,6.996 0.366,14.53 0.574,22.642c0.013,0.482 -0.21,0.891 -0.472,1.222c-0.471,0.596 -1.099,0.963 -1.226,1.038c-0.619,0.365 -1.303,0.628 -2,0.804l-2.632,0.316c-0.859,-0.095 -1.736,-0.097 -2.576,-0.303c-0.299,-0.074 -2.358,-0.543 -3.335,-1.928c-0.234,-0.332 -0.423,-0.74 -0.415,-1.146c0.154,-7.543 0.324,-15.086 0.505,-22.629Z" style="fill:#efce8a;"/><path d="M47.728,130.083c-7.948,-12.713 -10.948,-27.645 -8.993,-42.032c0.984,-7.241 6.678,-12.935 13.918,-13.919c7.963,-1.082 16.094,-0.646 23.922,1.307c-0.126,-1.656 -0.19,-3.329 -0.19,-5.017c0,-21.256 10.155,-40.16 25.881,-52.11c5.812,-4.416 13.856,-4.416 19.668,0c15.727,11.95 25.881,30.854 25.881,52.11c0,1.688 -0.064,3.361 -0.19,5.017c7.829,-1.953 15.959,-2.389 23.922,-1.307c7.241,0.984 12.935,6.678 13.919,13.918c1.955,14.388 -1.045,29.32 -8.994,42.033c2.236,0.659 4.435,1.441 6.588,2.344c6.739,2.824 10.766,9.798 9.842,17.046c-2.412,18.932 -13.331,36.558 -31.118,46.827c-8.622,4.978 -17.935,7.694 -27.248,8.33l0.142,5.536l-0.95,6.207l-3.026,5.52l-5.703,4.944l-6.29,2.57c-0.671,0.17 -1.351,0.296 -2.037,0.378l-2.632,0.317c-1.241,0.149 -2.495,0.155 -3.737,0.017c-1.56,-0.173 -3.136,-0.299 -4.661,-0.674l-7.16,-3.033l-5.577,-5.309l-2.553,-5.123l-0.831,-5.726l0.117,-5.626c-9.304,-0.639 -18.607,-3.354 -27.222,-8.328c-17.787,-10.269 -28.705,-27.895 -31.118,-46.827c-0.923,-7.248 3.103,-14.222 9.842,-17.046c2.153,-0.902 4.353,-1.685 6.588,-2.344Zm58.549,57.874c-0.181,7.543 -0.351,15.086 -0.505,22.629c-0.008,0.406 0.181,0.814 0.415,1.146c0.977,1.385 3.036,1.854 3.335,1.928c0.84,0.206 1.717,0.208 2.576,0.303l2.632,-0.316c0.697,-0.176 1.381,-0.439 2,-0.804c0.127,-0.075 0.755,-0.442 1.226,-1.038c0.262,-0.331 0.485,-0.74 0.472,-1.222c-0.208,-8.112 -0.399,-15.646 -0.574,-22.642c-0.007,-0.254 0.105,-0.496 0.303,-0.654c0.198,-0.159 0.458,-0.217 0.705,-0.156c11.388,2.823 23.841,1.416 34.795,-4.908c13.219,-7.632 21.328,-20.735 23.12,-34.805c-13.08,-5.482 -28.482,-5.011 -41.701,2.621c-6.86,3.961 -12.344,9.394 -16.283,15.672c-0.191,0.304 -0.558,0.447 -0.904,0.352c-0.345,-0.095 -0.588,-0.406 -0.597,-0.764c-0.195,-7.955 -0.364,-14.989 -0.512,-21.21c-0.006,-0.234 0.09,-0.46 0.263,-0.618c0.172,-0.159 0.405,-0.235 0.638,-0.209c13.677,1.503 27.889,-2.983 38.366,-13.459c10.782,-10.783 15.219,-25.524 13.312,-39.564c-14.041,-1.908 -28.781,2.529 -39.564,13.312c-5.814,5.814 -9.783,12.779 -11.907,20.164c-0.111,0.386 -0.487,0.633 -0.885,0.581c-0.399,-0.051 -0.7,-0.385 -0.709,-0.787c-0.174,-7.39 -0.302,-12.78 -0.406,-16.735c-0.006,-0.231 0.086,-0.454 0.254,-0.612c9.491,-8.966 15.418,-21.666 15.418,-35.74c0,-15.977 -7.639,-30.185 -19.46,-39.167c-11.821,8.982 -19.46,23.19 -19.46,39.167c0,14.13 5.974,26.875 15.532,35.846c0.169,0.159 0.262,0.383 0.256,0.614c-0.149,5.623 -0.301,11.245 -0.454,16.867c-0.011,0.402 -0.314,0.735 -0.712,0.785c-0.399,0.049 -0.774,-0.2 -0.883,-0.586c-2.107,-7.472 -6.099,-14.522 -11.974,-20.397c-10.782,-10.783 -25.523,-15.22 -39.563,-13.312c-1.908,14.04 2.529,28.781 13.312,39.564c10.475,10.475 24.687,14.962 38.362,13.459c0.234,-0.025 0.467,0.051 0.64,0.21c0.172,0.159 0.268,0.385 0.261,0.62c-0.192,7.039 -0.382,14.077 -0.567,21.116c-0.009,0.358 -0.252,0.667 -0.597,0.762c-0.345,0.095 -0.712,-0.047 -0.903,-0.35c-3.935,-6.239 -9.399,-11.639 -16.225,-15.581c-13.219,-7.632 -28.621,-8.103 -41.702,-2.62c1.793,14.069 9.902,27.172 23.121,34.804c10.931,6.311 23.356,7.726 34.726,4.926c0.246,-0.061 0.506,-0.003 0.703,0.155c0.197,0.159 0.31,0.4 0.304,0.653Z" style="fill:#846847;"/><path d="M106.277,187.957c0.006,-0.253 -0.107,-0.494 -0.304,-0.653c-0.197,-0.158 -0.457,-0.216 -0.703,-0.155c-11.37,2.8 -23.795,1.385 -34.726,-4.926c-13.219,-7.632 -21.328,-20.735 -23.121,-34.804c13.081,-5.483 28.483,-5.012 41.702,2.62c6.826,3.942 12.29,9.342 16.225,15.581c0.191,0.303 0.558,0.445 0.903,0.35c0.345,-0.095 0.588,-0.404 0.597,-0.762c0.185,-7.039 0.375,-14.077 0.567,-21.116c0.007,-0.235 -0.089,-0.461 -0.261,-0.62c-0.173,-0.159 -0.406,-0.235 -0.64,-0.21c-13.675,1.503 -27.887,-2.984 -38.362,-13.459c-10.783,-10.783 -15.22,-25.524 -13.312,-39.564c14.04,-1.908 28.781,2.529 39.563,13.312c5.875,5.875 9.867,12.925 11.974,20.397c0.109,0.386 0.484,0.635 0.883,0.586c0.398,-0.05 0.701,-0.383 0.712,-0.785c0.153,-5.622 0.305,-11.244 0.454,-16.867c0.006,-0.231 -0.087,-0.455 -0.256,-0.614c-9.558,-8.971 -15.532,-21.716 -15.532,-35.846c0,-15.977 7.639,-30.185 19.46,-39.167c11.821,8.982 19.46,23.19 19.46,39.167c0,14.074 -5.927,26.774 -15.418,35.74c-0.168,0.158 -0.26,0.381 -0.254,0.612c0.104,3.955 0.232,9.345 0.406,16.735c0.009,0.402 0.31,0.736 0.709,0.787c0.398,0.052 0.774,-0.195 0.885,-0.581c2.124,-7.385 6.093,-14.35 11.907,-20.164c10.783,-10.783 25.523,-15.22 39.564,-13.312c1.907,14.04 -2.53,28.781 -13.312,39.564c-10.477,10.476 -24.689,14.962 -38.366,13.459c-0.233,-0.026 -0.466,0.05 -0.638,0.209c-0.173,0.158 -0.269,0.384 -0.263,0.618c0.148,6.221 0.317,13.255 0.512,21.21c0.009,0.358 0.252,0.669 0.597,0.764c0.346,0.095 0.713,-0.048 0.904,-0.352c3.939,-6.278 9.423,-11.711 16.283,-15.672c13.219,-7.632 28.621,-8.103 41.701,-2.621c-1.792,14.07 -9.901,27.173 -23.12,34.805c-10.954,6.324 -23.407,7.731 -34.795,4.908c-0.247,-0.061 -0.507,-0.003 -0.705,0.156c-0.198,0.158 -0.31,0.4 -0.303,0.654c0.175,6.996 0.366,14.53 0.574,22.642c0.013,0.482 -0.21,0.891 -0.472,1.222c-0.471,0.596 -1.099,0.963 -1.226,1.038c-0.619,0.365 -1.303,0.628 -2,0.804l-2.632,0.316c-0.859,-0.095 -1.736,-0.097 -2.576,-0.303c-0.299,-0.074 -2.358,-0.543 -3.335,-1.928c-0.234,-0.332 -0.423,-0.74 -0.415,-1.146c0.154,-7.543 0.324,-15.086 0.505,-22.629Z" style="fill:#efce8a;"/><path d="M192.952,48.269l-161.703,161.702" style="fill:none;stroke:#5c4b3b;stroke-width:32.51px;"/></svg>