<?xml version="1.0" encoding="UTF-8" standalone="no"?><!DOCTYPE svg PUBLIC "-//W3C//DTD SVG 1.1//EN" "http://www.w3.org/Graphics/SVG/1.1/DTD/svg11.dtd"><svg width="100%" height="100%" viewBox="0 0 239 265" version="1.1" xmlns="http://www.w3.org/2000/svg" xmlns:xlink="http://www.w3.org/1999/xlink" xml:space="preserve" xmlns:serif="http://www.serif.com/" style="fill-rule:evenodd;clip-rule:evenodd;stroke-linecap:round;stroke-linejoin:round;stroke-miterlimit:1.5;"><path d="M112.314,212.805c0.007,-0.311 -0.131,-0.608 -0.374,-0.803c-0.243,-0.195 -0.563,-0.266 -0.865,-0.192c-13.99,3.445 -29.277,1.705 -42.727,-6.06c-16.265,-9.391 -26.242,-25.512 -28.447,-42.823c16.094,-6.746 35.045,-6.166 51.309,3.224c8.4,4.85 15.123,11.494 19.964,19.171c0.235,0.373 0.686,0.548 1.111,0.431c0.424,-0.117 0.723,-0.498 0.734,-0.938c0.228,-8.661 0.462,-17.321 0.698,-25.981c0.008,-0.289 -0.109,-0.567 -0.322,-0.763c-0.212,-0.195 -0.499,-0.29 -0.786,-0.258c-16.827,1.848 -34.312,-3.671 -47.201,-16.561c-13.267,-13.266 -18.727,-31.403 -16.379,-48.678c17.275,-2.348 35.411,3.112 48.678,16.379c7.229,7.228 12.14,15.902 14.733,25.095c0.134,0.476 0.596,0.782 1.086,0.721c0.49,-0.061 0.863,-0.471 0.876,-0.965c0.189,-6.917 0.375,-13.835 0.559,-20.752c0.007,-0.286 -0.108,-0.561 -0.316,-0.756c-11.759,-11.038 -19.109,-26.72 -19.109,-44.105c-0,-19.659 9.398,-37.139 23.943,-48.191c14.545,11.052 23.943,28.532 23.943,48.191c0,17.316 -7.292,32.943 -18.97,43.974c-0.207,0.195 -0.32,0.469 -0.313,0.753c0.129,4.866 0.286,11.498 0.5,20.591c0.012,0.494 0.382,0.905 0.872,0.968c0.49,0.064 0.952,-0.24 1.089,-0.715c2.613,-9.087 7.497,-17.656 14.651,-24.809c13.267,-13.267 31.403,-18.727 48.678,-16.379c2.348,17.275 -3.112,35.412 -16.378,48.678c-12.891,12.891 -30.378,18.41 -47.205,16.56c-0.287,-0.031 -0.573,0.063 -0.786,0.258c-0.212,0.195 -0.33,0.472 -0.323,0.76c0.182,7.655 0.391,16.309 0.63,26.097c0.011,0.441 0.31,0.823 0.735,0.94c0.426,0.116 0.877,-0.059 1.112,-0.433c4.846,-7.724 11.594,-14.41 20.034,-19.283c16.264,-9.39 35.215,-9.97 51.309,-3.224c-2.205,17.311 -12.182,33.432 -28.447,42.823c-13.477,7.781 -28.799,9.513 -42.812,6.039c-0.303,-0.075 -0.623,-0.004 -0.867,0.191c-0.243,0.196 -0.381,0.493 -0.373,0.805c0.216,8.609 0.451,17.878 0.707,27.859c0.015,0.593 -0.258,1.096 -0.581,1.503c-0.58,0.734 -1.352,1.185 -1.509,1.277c-0.761,0.45 -1.603,0.773 -2.46,0.99l-3.238,0.389c-1.058,-0.117 -2.137,-0.119 -3.171,-0.374c-0.368,-0.09 -2.9,-0.668 -4.102,-2.371c-0.288,-0.409 -0.521,-0.91 -0.511,-1.41c0.19,-9.281 0.398,-18.562 0.621,-27.843Z" style="fill:#efce8a;"/><path d="M40.276,141.597c-9.779,-15.641 -13.471,-34.014 -11.065,-51.716c1.21,-8.908 8.216,-15.914 17.125,-17.125c9.798,-1.331 19.801,-0.795 29.433,1.608c-0.155,-2.038 -0.233,-4.096 -0.233,-6.173c-0,-26.153 12.493,-49.413 31.843,-64.115c7.151,-5.434 17.048,-5.435 24.2,-0.001c19.35,14.703 31.843,37.963 31.843,64.116c0,2.077 -0.078,4.135 -0.233,6.172c9.632,-2.402 19.635,-2.939 29.433,-1.607c8.909,1.21 15.915,8.216 17.125,17.125c2.406,17.702 -1.285,36.075 -11.065,51.716c2.75,0.811 5.457,1.774 8.106,2.884c8.291,3.475 13.245,12.055 12.109,20.973c-2.968,23.294 -16.402,44.981 -38.287,57.616c-10.609,6.126 -22.068,9.467 -33.526,10.25l0.174,6.811l-1.168,7.637l-3.723,6.792l-7.017,6.083l-7.74,3.162c-0.825,0.209 -1.662,0.364 -2.506,0.466l-3.238,0.389c-1.527,0.184 -3.07,0.191 -4.599,0.021c-1.919,-0.213 -3.858,-0.368 -5.734,-0.83l-8.81,-3.731l-6.861,-6.532l-3.142,-6.304l-1.023,-7.044c0.047,-2.308 0.096,-4.615 0.145,-6.922c-11.448,-0.788 -22.894,-4.128 -33.494,-10.248c-21.885,-12.635 -35.319,-34.322 -38.287,-57.615c-1.136,-8.918 3.817,-17.499 12.109,-20.974c2.649,-1.11 5.356,-2.073 8.106,-2.884Zm72.038,71.208c-0.223,9.281 -0.431,18.562 -0.621,27.843c-0.01,0.5 0.223,1.001 0.511,1.41c1.202,1.703 3.734,2.281 4.102,2.371c1.034,0.255 2.113,0.257 3.171,0.374l3.238,-0.389c0.857,-0.217 1.699,-0.54 2.46,-0.99c0.157,-0.092 0.929,-0.543 1.509,-1.277c0.323,-0.407 0.596,-0.91 0.581,-1.503c-0.256,-9.981 -0.491,-19.25 -0.707,-27.859c-0.008,-0.312 0.13,-0.609 0.373,-0.805c0.244,-0.195 0.564,-0.266 0.867,-0.191c14.013,3.474 29.335,1.742 42.812,-6.039c16.265,-9.391 26.242,-25.512 28.447,-42.823c-16.094,-6.746 -35.045,-6.166 -51.309,3.224c-8.44,4.873 -15.188,11.559 -20.034,19.283c-0.235,0.374 -0.686,0.549 -1.112,0.433c-0.425,-0.117 -0.724,-0.499 -0.735,-0.94c-0.239,-9.788 -0.448,-18.442 -0.63,-26.097c-0.007,-0.288 0.111,-0.565 0.323,-0.76c0.213,-0.195 0.499,-0.289 0.786,-0.258c16.827,1.85 34.314,-3.669 47.205,-16.56c13.266,-13.266 18.726,-31.403 16.378,-48.678c-17.275,-2.348 -35.411,3.112 -48.678,16.379c-7.154,7.153 -12.038,15.722 -14.651,24.809c-0.137,0.475 -0.599,0.779 -1.089,0.715c-0.49,-0.063 -0.86,-0.474 -0.872,-0.968c-0.214,-9.093 -0.371,-15.725 -0.5,-20.591c-0.007,-0.284 0.106,-0.558 0.313,-0.753c11.678,-11.031 18.97,-26.658 18.97,-43.974c0,-19.659 -9.398,-37.139 -23.943,-48.191c-14.545,11.052 -23.943,28.532 -23.943,48.191c-0,17.385 7.35,33.067 19.109,44.105c0.208,0.195 0.323,0.47 0.316,0.756c-0.184,6.917 -0.37,13.835 -0.559,20.752c-0.013,0.494 -0.386,0.904 -0.876,0.965c-0.49,0.061 -0.952,-0.245 -1.086,-0.721c-2.593,-9.193 -7.504,-17.867 -14.733,-25.095c-13.267,-13.267 -31.403,-18.727 -48.678,-16.379c-2.348,17.275 3.112,35.412 16.379,48.678c12.889,12.89 30.374,18.409 47.201,16.561c0.287,-0.032 0.574,0.063 0.786,0.258c0.213,0.196 0.33,0.474 0.322,0.763c-0.236,8.66 -0.47,17.32 -0.698,25.981c-0.011,0.44 -0.31,0.821 -0.734,0.938c-0.425,0.117 -0.876,-0.058 -1.111,-0.431c-4.841,-7.677 -11.564,-14.321 -19.964,-19.171c-16.264,-9.39 -35.215,-9.97 -51.309,-3.224c2.205,17.311 12.182,33.432 28.447,42.823c13.45,7.765 28.737,9.505 42.727,6.06c0.302,-0.074 0.622,-0.003 0.865,0.192c0.243,0.195 0.381,0.492 0.374,0.803Z" style="fill:#846847;"/><path d="M218.958,40.934l-198.958,198.957" style="fill:none;stroke:#5c4b3b;stroke-width:40px;"/></svg>