<?xml version="1.0" encoding="UTF-8" standalone="no"?><!DOCTYPE svg PUBLIC "-//W3C//DTD SVG 1.1//EN" "http://www.w3.org/Graphics/SVG/1.1/DTD/svg11.dtd"><svg width="100%" height="100%" viewBox="0 0 195 216" version="1.1" xmlns="http://www.w3.org/2000/svg" xmlns:xlink="http://www.w3.org/1999/xlink" xml:space="preserve" xmlns:serif="http://www.serif.com/" style="fill-rule:evenodd;clip-rule:evenodd;stroke-linejoin:round;stroke-miterlimit:2;"><path d="M0.361,105.339c-0.236,-1.057 -0.361,-2.157 -0.361,-3.286l0,-87.053c-0,-8.284 6.716,-15 15,-15l27.242,-0c5.87,0 10.952,3.371 13.416,8.283l3.609,-3.723c2.825,-2.915 6.711,-4.56 10.77,-4.56l35.795,-0c4.017,0 7.769,1.602 10.519,4.306c6.913,-2.837 14.445,-4.306 22.615,-4.306c8.001,-0 15.342,1.501 22.046,4.391c6.819,2.939 12.703,7.058 17.672,12.33c4.928,5.228 8.735,11.39 11.36,18.519c2.527,6.86 3.737,14.323 3.521,22.408l-0.157,6.743c-0.135,5.803 -3.553,10.772 -8.453,13.151l2.554,3.595c4.498,6.33 3.421,15.047 -2.484,20.092c-3.452,2.95 -7.068,5.453 -10.84,7.522c4.768,4.127 8.798,8.959 12.095,14.491c5.455,9.149 8.292,19.6 8.292,31.41c-0,11.813 -2.838,22.265 -8.293,31.414c-5.481,9.195 -12.988,16.46 -22.548,21.763c-9.315,5.167 -19.89,7.853 -31.774,7.853c-11.923,0 -22.528,-2.682 -31.868,-7.838l-0.004,-0.002c-8.431,-4.658 -15.276,-10.831 -20.556,-18.497l-0,6.289c-0,8.284 -6.716,15 -15,15l-26.214,0c-8.284,0 -15,-6.716 -15,-15l0,-49.1l-8.315,0c-8.284,0 -15,-6.715 -15,-15l0,-22.909c-0,-1.129 0.125,-2.228 0.361,-3.286Zm130.773,41.195c-0.676,0.076 -1.302,0.261 -1.861,0.617c-0.925,0.59 -1.613,1.43 -2.14,2.452c-0.732,1.423 -0.974,3.069 -0.955,4.891c0.001,0.106 0.001,0.212 -0,0.318c-0.019,1.776 0.233,3.389 0.955,4.797c0.527,1.021 1.214,1.859 2.137,2.449c0.781,0.496 1.692,0.659 2.687,0.659c0.927,-0 1.777,-0.161 2.51,-0.632c0.89,-0.571 1.546,-1.388 2.047,-2.379l0.001,-0.003c0.726,-1.434 0.977,-3.076 0.957,-4.885c-0.001,-0.109 -0.001,-0.218 0,-0.328c0.021,-1.89 -0.216,-3.589 -0.955,-5.05l-0.003,-0.005c-0.485,-0.961 -1.116,-1.752 -1.978,-2.299l-0.008,-0.006c-0.575,-0.364 -1.219,-0.545 -1.916,-0.61c-0.218,0.01 -0.437,0.014 -0.658,0.014l-0.82,0Z" style="fill:#faf8f4;"/><g><path d="M142.104,102.053c-9.237,0 -17.277,-1.858 -24.118,-5.574c-6.84,-3.717 -12.141,-8.804 -15.902,-15.261c-3.76,-6.457 -5.641,-13.875 -5.641,-22.254c0,-6.397 1.051,-12.275 3.153,-17.635c2.103,-5.361 5.049,-10.012 8.839,-13.953c3.792,-3.941 8.289,-6.989 13.492,-9.144c5.203,-2.155 10.882,-3.232 17.039,-3.232c5.843,0 11.213,1.055 16.108,3.165c4.896,2.111 9.127,5.059 12.694,8.844c3.567,3.784 6.3,8.256 8.201,13.416c1.9,5.158 2.767,10.778 2.601,16.859l-0.158,6.757l-66.73,-0l-3.626,-14.105l49.807,-0l-2.727,2.951l-0,-3.24c-0.133,-2.624 -0.912,-4.955 -2.336,-6.993c-1.423,-2.038 -3.297,-3.634 -5.621,-4.789c-2.324,-1.154 -4.941,-1.732 -7.851,-1.732c-4.168,0 -7.683,0.821 -10.545,2.464c-2.863,1.64 -5.036,4.008 -6.521,7.104c-1.485,3.096 -2.227,6.877 -2.227,11.344c0,4.634 0.982,8.673 2.946,12.115c1.966,3.442 4.809,6.108 8.529,7.998c3.721,1.889 8.171,2.833 13.349,2.833c3.555,0 6.731,-0.516 9.528,-1.549c2.797,-1.035 5.792,-2.827 8.986,-5.375l11.908,16.758c-3.306,2.825 -6.802,5.123 -10.489,6.895c-3.687,1.77 -7.433,3.101 -11.238,3.993c-3.805,0.894 -7.621,1.34 -11.45,1.34Z" style="fill:#6a8b52;fill-rule:nonzero;"/><path d="M38.315,195.634l0,-87.009l26.214,0l-0,87.009l-26.214,0Zm-23.315,-64.1l0,-22.909l116.954,0l-0,22.909l-116.954,0Z" style="fill:#6a8b52;fill-rule:nonzero;"/><path d="M131.957,200.682c-9.203,0 -17.409,-1.99 -24.619,-5.97c-7.207,-3.982 -12.885,-9.424 -17.034,-16.328c-4.149,-6.905 -6.223,-14.816 -6.223,-23.732c-0,-8.914 2.074,-16.824 6.223,-23.729c4.149,-6.905 9.827,-12.348 17.034,-16.328c7.21,-3.98 15.416,-5.97 24.619,-5.97c9.156,0 17.322,1.99 24.498,5.97c7.178,3.98 12.825,9.423 16.941,16.328c4.117,6.905 6.176,14.815 6.176,23.729c-0,8.916 -2.059,16.827 -6.176,23.732c-4.116,6.904 -9.763,12.346 -16.941,16.328c-7.176,3.98 -15.342,5.97 -24.498,5.97Zm-0,-22.965c3.95,-0 7.488,-1.003 10.613,-3.009c3.127,-2.007 5.57,-4.752 7.331,-8.235c1.762,-3.485 2.619,-7.425 2.57,-11.821c0.049,-4.506 -0.808,-8.501 -2.57,-11.984c-1.761,-3.483 -4.204,-6.216 -7.331,-8.199c-3.125,-1.985 -6.663,-2.978 -10.613,-2.978c-4.015,0 -7.597,1.004 -10.747,3.011c-3.149,2.008 -5.62,4.753 -7.414,8.236c-1.792,3.483 -2.664,7.455 -2.617,11.914c-0.047,4.396 0.825,8.336 2.617,11.821c1.794,3.483 4.265,6.228 7.414,8.235c3.15,2.006 6.732,3.009 10.747,3.009Z" style="fill:#6a8b52;fill-rule:nonzero;"/><path d="M41.202,75.565l-10.113,-20.386l38.948,-40.179l35.795,-0l-64.63,60.565Zm-26.202,26.488l0,-87.053l27.242,-0l0,87.053l-27.242,0Zm61.095,0l-31.677,-41.182l19.125,-14.791l44.719,55.973l-32.167,0Z" style="fill:#6a8b52;fill-rule:nonzero;"/></g></svg>