<?xml version="1.0" encoding="UTF-8" standalone="no"?><!DOCTYPE svg PUBLIC "-//W3C//DTD SVG 1.1//EN" "http://www.w3.org/Graphics/SVG/1.1/DTD/svg11.dtd"><svg width="100%" height="100%" viewBox="0 0 203 229" version="1.1" xmlns="http://www.w3.org/2000/svg" xmlns:xlink="http://www.w3.org/1999/xlink" xml:space="preserve" xmlns:serif="http://www.serif.com/" style="fill-rule:evenodd;clip-rule:evenodd;stroke-linejoin:round;stroke-miterlimit:2;"><g><path d="M156.389,107.11c-11.366,-0 -21.258,-2.287 -29.676,-6.859c-8.416,-4.573 -14.938,-10.832 -19.565,-18.777c-4.627,-7.945 -6.941,-17.072 -6.941,-27.381c0,-7.87 1.294,-15.103 3.88,-21.699c2.586,-6.595 6.211,-12.317 10.875,-17.167c4.665,-4.849 10.199,-8.599 16.6,-11.25c6.402,-2.651 13.39,-3.977 20.965,-3.977c7.189,-0 13.796,1.298 19.819,3.895c6.024,2.596 11.23,6.223 15.619,10.881c4.388,4.655 7.752,10.157 10.09,16.506c2.337,6.347 3.404,13.261 3.2,20.744l-0.194,8.314l-82.104,-0l-4.462,-17.355l61.282,-0l-3.355,3.631l0,-3.986c-0.164,-3.229 -1.121,-6.097 -2.873,-8.605c-1.752,-2.507 -4.058,-4.471 -6.917,-5.892c-2.859,-1.42 -6.079,-2.131 -9.659,-2.131c-5.129,0 -9.454,1.011 -12.976,3.031c-3.522,2.019 -6.196,4.933 -8.023,8.741c-1.826,3.809 -2.74,8.462 -2.74,13.958c0,5.702 1.209,10.671 3.625,14.906c2.419,4.235 5.917,7.516 10.494,9.841c4.578,2.324 10.053,3.486 16.424,3.486c4.375,-0 8.283,-0.636 11.724,-1.907c3.441,-1.273 7.126,-3.477 11.056,-6.613l14.652,20.619c-4.068,3.476 -8.369,6.304 -12.906,8.484c-4.536,2.178 -9.145,3.816 -13.827,4.913c-4.682,1.099 -9.377,1.649 -14.087,1.649Z" style="fill:#6a8b52;fill-rule:nonzero;"/><path d="M28.687,222.251l-0,-107.055l32.253,-0l-0,107.055l-32.253,0Zm-28.687,-78.868l0,-28.187l143.899,-0l0,28.187l-143.899,0Z" style="fill:#6a8b52;fill-rule:nonzero;"/><path d="M143.903,228.462c-11.323,0 -21.42,-2.448 -30.29,-7.345c-8.869,-4.9 -15.855,-11.596 -20.959,-20.09c-5.105,-8.496 -7.657,-18.229 -7.657,-29.2c-0,-10.968 2.552,-20.7 7.657,-29.196c5.104,-8.496 12.09,-15.193 20.959,-20.09c8.87,-4.897 18.967,-7.345 30.29,-7.345c11.265,-0 21.313,2.448 30.142,7.345c8.832,4.897 15.78,11.594 20.844,20.09c5.066,8.496 7.599,18.228 7.599,29.196c-0,10.971 -2.533,20.704 -7.599,29.2c-5.064,8.494 -12.012,15.19 -20.844,20.09c-8.829,4.897 -18.877,7.345 -30.142,7.345Zm-0,-28.256c4.86,-0 9.213,-1.234 13.058,-3.702c3.847,-2.47 6.854,-5.848 9.02,-10.133c2.169,-4.288 3.223,-9.136 3.163,-14.544c0.06,-5.545 -0.994,-10.46 -3.163,-14.745c-2.166,-4.286 -5.173,-7.649 -9.02,-10.089c-3.845,-2.442 -8.198,-3.663 -13.058,-3.663c-4.94,0 -9.348,1.235 -13.222,3.705c-3.875,2.47 -6.916,5.848 -9.123,10.133c-2.205,4.286 -3.278,9.172 -3.221,14.659c-0.057,5.408 1.016,10.256 3.221,14.544c2.207,4.285 5.248,7.663 9.123,10.133c3.874,2.468 8.282,3.702 13.222,3.702Z" style="fill:#6a8b52;fill-rule:nonzero;"/><path d="M32.239,74.518l-12.443,-25.082l47.921,-49.436l44.042,0l-79.52,74.518Zm-32.239,32.592l-0,-107.11l33.519,0l-0,107.11l-33.519,-0Zm75.17,-0l-38.974,-50.67l23.531,-18.199l55.022,68.869l-39.579,-0Z" style="fill:#6a8b52;fill-rule:nonzero;"/></g></svg>