<?xml version="1.0" encoding="UTF-8" standalone="no"?><!DOCTYPE svg PUBLIC "-//W3C//DTD SVG 1.1//EN" "http://www.w3.org/Graphics/SVG/1.1/DTD/svg11.dtd"><svg width="100%" height="100%" viewBox="0 0 255 269" version="1.1" xmlns="http://www.w3.org/2000/svg" xmlns:xlink="http://www.w3.org/1999/xlink" xml:space="preserve" xmlns:serif="http://www.serif.com/" style="fill-rule:evenodd;clip-rule:evenodd;stroke-linejoin:round;stroke-miterlimit:2;"><path d="M208.379,20c-0,0 -0,33.043 -0,53.708c-0.001,10.63 2.867,21.063 8.299,30.2c3.387,5.698 7.274,12.237 10.57,17.78c4.88,8.21 7.456,17.584 7.456,27.135c0,30.799 0,99.639 0,99.639l-106.078,0l0,-98.141c0,-10.535 2.816,-20.878 8.157,-29.959c3.38,-5.747 7.27,-12.362 10.557,-17.952c4.799,-8.159 7.329,-17.453 7.329,-26.918l-0,-55.492l53.71,0Z" style="fill:#edf0f1;"/><clipPath id="_clip1"><path d="M208.379,20c-0,0 -0,33.043 -0,53.708c-0.001,10.63 2.867,21.063 8.299,30.2c3.387,5.698 7.274,12.237 10.57,17.78c4.88,8.21 7.456,17.584 7.456,27.135c0,30.799 0,99.639 0,99.639l-106.078,0l0,-98.141c0,-10.535 2.816,-20.878 8.157,-29.959c3.38,-5.747 7.27,-12.362 10.557,-17.952c4.799,-8.159 7.329,-17.453 7.329,-26.918l-0,-55.492l53.71,0Z"/></clipPath><g clip-path="url(#_clip1)"><rect x="128.626" y="138.565" width="106.078" height="83.447" style="fill:#80b3dd;"/></g><path d="M228.379,20l-0,53.708c-0.001,7.032 1.896,13.935 5.49,19.98l10.57,17.78c6.719,11.302 10.265,24.207 10.265,37.355l0,99.639c0,11.046 -8.954,20 -20,20l-106.078,0c-11.045,0 -20,-8.954 -20,-20l0,-98.141c0,-14.1 3.769,-27.944 10.917,-40.098l10.558,-17.952c2.991,-5.086 4.568,-10.879 4.568,-16.779l-0,-55.492c-0,-11.046 8.954,-20 20,-20l53.71,0c11.045,-0 20,8.954 20,20Zm-20,0l-53.71,0l-0,55.492c-0,9.465 -2.53,18.759 -7.329,26.918l-10.557,17.952c-5.341,9.081 -8.157,19.424 -8.157,29.959l0,98.141l106.078,0l0,-99.639c0,-9.551 -2.576,-18.925 -7.456,-27.135l-10.57,-17.78c-5.432,-9.137 -8.3,-19.57 -8.299,-30.2l-0,-53.708Z" style="fill:#7e9fb5;"/><rect x="154.669" y="20" width="53.71" height="11.093" style="fill:#80b3dd;"/><g transform="matrix(320.466,0,0,320.466,-3.9207,248.462)"><path d="M0.234,-0l-0.222,-0.531l0.177,0l0.132,0.397l-0.039,0.004l0.136,-0.401l0.175,0l-0.233,0.531l-0.126,-0Z" style="fill:#6a8b52;fill-rule:nonzero;"/></g><g transform="matrix(320.466,0,0,320.466,189.961,248.462)"></g></svg>