<?xml version="1.0" encoding="UTF-8" standalone="no"?><!DOCTYPE svg PUBLIC "-//W3C//DTD SVG 1.1//EN" "http://www.w3.org/Graphics/SVG/1.1/DTD/svg11.dtd"><svg width="100%" height="100%" viewBox="0 0 238 249" version="1.1" xmlns="http://www.w3.org/2000/svg" xmlns:xlink="http://www.w3.org/1999/xlink" xml:space="preserve" xmlns:serif="http://www.serif.com/" style="fill-rule:evenodd;clip-rule:evenodd;stroke-linejoin:round;stroke-miterlimit:2;"><path d="M90.605,119.849c1.527,-6.613 3.798,-13.047 6.776,-19.171l9.105,-26.8c0.655,-1.926 1.674,-3.652 2.966,-5.112l-0,-37.511c-0,-17.262 13.993,-31.255 31.255,-31.255l43.652,-0c17.262,-0 31.255,13.993 31.255,31.255l0,41.159c0,4.649 1.254,9.211 3.63,13.207l7.325,12.323c6.834,11.496 10.442,24.622 10.442,37.996l-0,80.997c-0,17.262 -13.994,31.255 -31.255,31.255l-86.215,0c-11.826,0 -22.118,-6.568 -27.427,-16.255l-19.292,0c-6.048,0 -11.505,-3.632 -13.838,-9.211l-57.822,-138.234c-1.937,-4.631 -1.43,-9.923 1.352,-14.101c2.781,-4.178 7.467,-6.688 12.486,-6.688l46.109,0c6.46,0 12.194,4.136 14.233,10.266l15.263,45.88Z" style="fill:#faf8f4;"/><clipPath id="_clip1"><path d="M90.605,119.849c1.527,-6.613 3.798,-13.047 6.776,-19.171l9.105,-26.8c0.655,-1.926 1.674,-3.652 2.966,-5.112l-0,-37.511c-0,-17.262 13.993,-31.255 31.255,-31.255l43.652,-0c17.262,-0 31.255,13.993 31.255,31.255l0,41.159c0,4.649 1.254,9.211 3.63,13.207l7.325,12.323c6.834,11.496 10.442,24.622 10.442,37.996l-0,80.997c-0,17.262 -13.994,31.255 -31.255,31.255l-86.215,0c-11.826,0 -22.118,-6.568 -27.427,-16.255l-19.292,0c-6.048,0 -11.505,-3.632 -13.838,-9.211l-57.822,-138.234c-1.937,-4.631 -1.43,-9.923 1.352,-14.101c2.781,-4.178 7.467,-6.688 12.486,-6.688l46.109,0c6.46,0 12.194,4.136 14.233,10.266l15.263,45.88Z"/></clipPath><g clip-path="url(#_clip1)"><rect x="119.541" y="127.618" width="86.215" height="67.822" style="fill:#80b3dd;"/></g><path d="M184.359,31.255c0,-0 0,24.332 0,41.159c0,10.271 2.77,20.351 8.019,29.179c2.426,4.082 5.05,8.495 7.325,12.322c3.962,6.664 6.053,14.273 6.053,22.025l-0,80.997l-86.215,0l-0,-76.751c-0,-10.535 2.816,-20.878 8.157,-29.959c2.351,-3.998 4.871,-8.283 7.061,-12.007c3.894,-6.623 5.948,-14.166 5.948,-21.849l-0,-45.116l43.652,-0Z" style="fill:#edf0f1;"/><clipPath id="_clip2"><path d="M184.359,31.255c0,-0 0,24.332 0,41.159c0,10.271 2.77,20.351 8.019,29.179c2.426,4.082 5.05,8.495 7.325,12.322c3.962,6.664 6.053,14.273 6.053,22.025l-0,80.997l-86.215,0l-0,-76.751c-0,-10.535 2.816,-20.878 8.157,-29.959c2.351,-3.998 4.871,-8.283 7.061,-12.007c3.894,-6.623 5.948,-14.166 5.948,-21.849l-0,-45.116l43.652,-0Z"/></clipPath><g clip-path="url(#_clip2)"><rect x="119.541" y="127.618" width="86.215" height="67.822" style="fill:#80b3dd;"/></g><path d="M200.614,31.255l0,41.159c0,7.347 1.982,14.558 5.736,20.873l7.326,12.322c5.455,9.177 8.335,19.655 8.335,30.331l-0,80.997c-0,8.978 -7.278,16.255 -16.255,16.255l-86.215,0c-8.977,0 -16.255,-7.277 -16.255,-16.255l0,-76.751c0,-13.432 3.591,-26.621 10.4,-38.2l7.061,-12.006c2.426,-4.125 3.705,-8.823 3.705,-13.609l-0,-45.116c-0,-8.977 7.278,-16.255 16.255,-16.255l43.652,-0c8.978,-0 16.255,7.278 16.255,16.255Zm-16.255,-0l-43.652,-0l-0,45.116c-0,7.683 -2.054,15.226 -5.948,21.849l-7.061,12.007c-5.341,9.081 -8.157,19.424 -8.157,29.959l-0,76.751l86.215,0l-0,-80.997c-0,-7.752 -2.091,-15.361 -6.053,-22.025l-7.325,-12.322c-5.249,-8.828 -8.019,-18.908 -8.019,-29.179l0,-41.159Z" style="fill:#4b6d83;"/><rect x="140.707" y="31.255" width="43.652" height="9.016" style="fill:#80b3dd;"/><path d="M72.822,216.937l-57.822,-138.234l46.109,0l34.348,103.256l-10.186,0.997l35.418,-104.253l45.552,0l-60.687,138.234l-32.732,0Z" style="fill:#5c4b3b;fill-rule:nonzero;"/></svg>