<?xml version="1.0" encoding="UTF-8" standalone="no"?><!DOCTYPE svg PUBLIC "-//W3C//DTD SVG 1.1//EN" "http://www.w3.org/Graphics/SVG/1.1/DTD/svg11.dtd"><svg width="100%" height="100%" viewBox="0 0 262 269" version="1.1" xmlns="http://www.w3.org/2000/svg" xmlns:xlink="http://www.w3.org/1999/xlink" xml:space="preserve" xmlns:serif="http://www.serif.com/" style="fill-rule:evenodd;clip-rule:evenodd;stroke-linejoin:round;stroke-miterlimit:2;"><path d="M165.28,20c24.223,0.013 75.774,52.541 75.774,146.326c-0,49.465 -33.953,82.136 -75.774,82.136c-41.82,0 -75.773,-30.296 -75.773,-82.136c-0,-93.785 51.551,-146.326 75.773,-146.326Z" style="fill:#efdfc5;"/><path d="M165.291,0c10.701,0.006 25.691,5.617 40.5,19.096c26.149,23.799 55.263,74.071 55.263,147.23c-0,61.977 -43.375,102.136 -95.774,102.136c-52.398,0 -95.773,-37.183 -95.773,-102.136c-0,-73.159 29.114,-123.438 55.262,-147.236c14.813,-13.482 29.807,-19.09 40.511,-19.09l0.011,0Zm-0.011,20c-24.222,-0 -75.773,52.541 -75.773,146.326c-0,51.84 33.953,82.136 75.773,82.136c41.821,0 75.774,-32.671 75.774,-82.136c-0,-93.785 -51.551,-146.313 -75.774,-146.326Z" style="fill:#b89c83;"/><g transform="matrix(320.466,0,0,320.466,-3.9207,248.462)"><path d="M0.234,-0l-0.222,-0.531l0.177,0l0.132,0.397l-0.039,0.004l0.136,-0.401l0.175,0l-0.233,0.531l-0.126,-0Z" style="fill:#6a8b52;fill-rule:nonzero;"/></g><g transform="matrix(320.466,0,0,320.466,189.961,248.462)"></g></svg>