<?xml version="1.0" encoding="UTF-8" standalone="no"?><!DOCTYPE svg PUBLIC "-//W3C//DTD SVG 1.1//EN" "http://www.w3.org/Graphics/SVG/1.1/DTD/svg11.dtd"><svg width="100%" height="100%" viewBox="0 0 243 249" version="1.1" xmlns="http://www.w3.org/2000/svg" xmlns:xlink="http://www.w3.org/1999/xlink" xml:space="preserve" xmlns:serif="http://www.serif.com/" style="fill-rule:evenodd;clip-rule:evenodd;stroke-linejoin:round;stroke-miterlimit:2;"><path d="M72.433,68.865c9.569,-22.163 22.128,-38.751 33.877,-49.443c15.612,-14.21 31.739,-19.422 43.021,-19.422l0.017,0c11.278,0.006 27.398,5.222 43.005,19.427c23.266,21.175 49.818,65.66 49.818,130.754c-0,59.758 -42.318,98.011 -92.84,98.011c-19.946,0 -38.506,-5.667 -53.727,-16.255l-22.782,0c-6.048,0 -11.505,-3.632 -13.838,-9.211l-57.822,-138.234c-1.937,-4.631 -1.43,-9.923 1.352,-14.101c2.781,-4.178 7.467,-6.688 12.486,-6.688l46.109,0c4.438,0 8.534,1.952 11.324,5.162Z" style="fill:#faf8f4;"/><path d="M149.331,31.255c19.687,0.011 61.585,42.702 61.585,118.926c-0,40.203 -27.595,66.756 -61.585,66.756c-33.989,0 -61.584,-24.623 -61.584,-66.756c-0,-76.224 41.897,-118.926 61.584,-118.926Z" style="fill:#efdfc5;"/><path d="M149.34,15c8.697,0.005 20.881,4.565 32.917,15.52c21.252,19.343 44.914,60.201 44.914,119.661c-0,50.372 -35.253,83.011 -77.84,83.011c-42.587,0 -77.839,-30.221 -77.839,-83.011c-0,-59.46 23.662,-100.324 44.914,-119.666c12.039,-10.957 24.226,-15.515 32.925,-15.515l0.009,0Zm-0.009,16.255c-19.687,-0 -61.584,42.702 -61.584,118.926c-0,42.133 27.595,66.756 61.584,66.756c33.99,0 61.585,-26.553 61.585,-66.756c-0,-76.224 -41.898,-118.915 -61.585,-118.926Z" style="fill:#917760;"/><g transform="matrix(260.458,0,0,260.458,11.8135,216.937)"><path d="M0.234,-0l-0.222,-0.531l0.177,0l0.132,0.397l-0.039,0.004l0.136,-0.401l0.175,0l-0.233,0.531l-0.126,-0Z" style="fill:#5c4b3b;fill-rule:nonzero;"/></g><g transform="matrix(260.458,0,0,260.458,169.391,216.937)"></g></svg>