<?xml version="1.0" encoding="UTF-8" standalone="no"?><!DOCTYPE svg PUBLIC "-//W3C//DTD SVG 1.1//EN" "http://www.w3.org/Graphics/SVG/1.1/DTD/svg11.dtd"><svg width="100%" height="100%" viewBox="0 0 172 249" version="1.1" xmlns="http://www.w3.org/2000/svg" xmlns:xlink="http://www.w3.org/1999/xlink" xml:space="preserve" xmlns:serif="http://www.serif.com/" style="fill-rule:evenodd;clip-rule:evenodd;stroke-linejoin:round;stroke-miterlimit:2;"><path d="M28.149,191.383c-18.038,-20.754 -28.149,-45.47 -28.149,-73.48c0,-44.591 27.006,-89.098 70.07,-113.768c9.624,-5.513 21.449,-5.513 31.073,0c43.063,24.67 70.069,69.177 70.069,113.768c0,28.01 -10.111,52.726 -28.149,73.48l5.143,6.933c7.035,9.484 8.125,22.124 2.816,32.672c-5.309,10.549 -16.109,17.204 -27.918,17.204l-74.996,0c-11.808,0 -22.609,-6.655 -27.918,-17.204c-5.309,-10.548 -4.219,-23.188 2.816,-32.672l5.143,-6.933Zm77.79,-123.609c-5.726,-7.046 -12.578,-13.408 -20.333,-18.792c-7.755,5.384 -14.607,11.746 -20.333,18.792l40.666,-0Zm-14.288,131.941c-1.973,0.389 -3.996,0.59 -6.045,0.59c-2.048,-0 -4.072,-0.201 -6.045,-0.59l-1.649,2.222l15.388,0l-1.649,-2.222Z" style="fill:#faf8f4;"/><path d="M69.876,187.594c-23.876,-17.939 -38.621,-41.347 -38.621,-69.691c-0,-34.135 21.386,-67.763 54.351,-86.648c32.965,18.885 54.351,52.513 54.351,86.648c0,28.344 -14.745,51.752 -38.621,69.691l21.768,29.343l-74.996,0l21.768,-29.343Z" style="fill:#f47a6b;"/><path d="M47.734,190.159c-20.712,-19.652 -32.734,-43.984 -32.734,-72.256c0,-39.573 24.309,-78.859 62.526,-100.752c5.005,-2.868 11.155,-2.868 16.16,-0c38.217,21.893 62.526,61.179 62.526,100.752c0,28.272 -12.022,52.604 -32.734,72.256l12.681,17.094c3.659,4.932 4.225,11.506 1.464,16.992c-2.761,5.486 -8.378,8.947 -14.519,8.947l-74.996,0c-6.141,0 -11.758,-3.461 -14.519,-8.947c-2.761,-5.486 -2.195,-12.06 1.464,-16.992l12.681,-17.094Zm22.142,-2.565l-21.768,29.343l74.996,0l-21.768,-29.343c23.876,-17.939 38.621,-41.347 38.621,-69.691c0,-34.135 -21.386,-67.763 -54.351,-86.648c-32.965,18.885 -54.351,52.513 -54.351,86.648c-0,28.344 14.745,51.752 38.621,69.691Z" style="fill:#954839;"/><path d="M46.58,143.724l-25.972,-35.011c-3.659,-4.932 -4.226,-11.506 -1.465,-16.992c2.761,-5.486 8.379,-8.947 14.52,-8.947l51.943,-0c6.142,-0 11.759,3.461 14.52,8.947c2.761,5.486 2.194,12.06 -1.465,16.992l-25.971,35.011c-3.067,4.133 -7.909,6.57 -13.055,6.57c-5.147,0 -9.989,-2.437 -13.055,-6.57Zm13.055,-9.685l25.971,-35.01l-51.943,-0l25.972,35.01Z" style="fill:none;"/><path d="M59.635,134.039l-25.972,-35.01l51.943,-0l-25.971,35.01Z" style="fill:#ffa78f;"/><path d="M98.523,143.724l-25.972,-35.011c-3.659,-4.932 -4.226,-11.506 -1.465,-16.992c2.761,-5.486 8.379,-8.947 14.52,-8.947l51.943,-0c6.142,-0 11.759,3.461 14.52,8.947c2.761,5.486 2.194,12.06 -1.465,16.992l-25.971,35.011c-3.067,4.133 -7.909,6.57 -13.055,6.57c-5.147,0 -9.989,-2.437 -13.055,-6.57Zm13.055,-9.685l25.971,-35.01l-51.943,-0l25.972,35.01Z" style="fill:none;"/><path d="M111.578,134.039l-25.972,-35.01l51.943,-0l-25.971,35.01Z" style="fill:#ffa78f;"/><path d="M72.551,178.734l-25.971,-35.01c-3.66,-4.933 -4.226,-11.506 -1.465,-16.992c2.761,-5.486 8.378,-8.948 14.52,-8.948l51.943,0c6.141,0 11.758,3.462 14.519,8.948c2.761,5.486 2.195,12.059 -1.464,16.992l-25.972,35.01c-3.066,4.133 -7.908,6.571 -13.055,6.571c-5.146,-0 -9.989,-2.438 -13.055,-6.571Zm13.055,-9.684l25.972,-35.011l-51.943,0l25.971,35.011Z" style="fill:none;"/><path d="M85.606,169.05l-25.971,-35.011l51.943,0l-25.972,35.011Z" style="fill:#ffa78f;"/></svg>