<?xml version="1.0" encoding="UTF-8" standalone="no"?><!DOCTYPE svg PUBLIC "-//W3C//DTD SVG 1.1//EN" "http://www.w3.org/Graphics/SVG/1.1/DTD/svg11.dtd"><svg width="100%" height="100%" viewBox="0 0 174 269" version="1.1" xmlns="http://www.w3.org/2000/svg" xmlns:xlink="http://www.w3.org/1999/xlink" xml:space="preserve" xmlns:serif="http://www.serif.com/" style="fill-rule:evenodd;clip-rule:evenodd;stroke-linejoin:round;stroke-miterlimit:2;"><path d="M67.519,212.359c-29.377,-22.072 -47.519,-50.874 -47.519,-85.748c-0,-41.999 26.313,-83.375 66.873,-106.611c40.561,23.236 66.873,64.612 66.873,106.611c0,34.874 -18.142,63.676 -47.518,85.748l26.782,36.103l-92.274,0l26.783,-36.103Z" style="fill:#f47a6b;"/><path d="M40.275,215.515c-25.483,-24.18 -40.275,-54.118 -40.275,-88.904c-0,-48.69 29.91,-97.027 76.931,-123.965c6.159,-3.528 13.726,-3.528 19.884,0c47.022,26.938 76.931,75.275 76.931,123.965c0,34.786 -14.791,64.724 -40.275,88.904l15.602,21.031c4.502,6.069 5.199,14.158 1.802,20.907c-3.397,6.75 -10.308,11.009 -17.865,11.009l-92.274,0c-7.556,0 -14.467,-4.259 -17.865,-11.009c-3.397,-6.749 -2.699,-14.838 1.803,-20.907l15.601,-21.031Zm27.244,-3.156l-26.783,36.103l92.274,0l-26.782,-36.103c29.376,-22.072 47.518,-50.874 47.518,-85.748c0,-41.999 -26.312,-83.375 -66.873,-106.611c-40.56,23.236 -66.873,64.612 -66.873,106.611c0,34.874 18.142,63.676 47.519,85.748Z" style="fill:#954839;"/><path d="M54.918,146.465l-31.955,-43.076l63.91,-0l-31.955,43.076Z" style="fill:#ffa78f;"/><path d="M118.828,146.465l-31.955,-43.076l63.911,-0l-31.956,43.076Z" style="fill:#ffa78f;"/><path d="M86.873,189.542l-31.955,-43.077l63.91,0l-31.955,43.077Z" style="fill:#ffa78f;"/></svg>