<?xml version="1.0" encoding="UTF-8" standalone="no"?><!DOCTYPE svg PUBLIC "-//W3C//DTD SVG 1.1//EN" "http://www.w3.org/Graphics/SVG/1.1/DTD/svg11.dtd"><svg width="100%" height="100%" viewBox="0 0 269 246" version="1.1" xmlns="http://www.w3.org/2000/svg" xmlns:xlink="http://www.w3.org/1999/xlink" xml:space="preserve" xmlns:serif="http://www.serif.com/" style="fill-rule:evenodd;clip-rule:evenodd;stroke-linejoin:round;stroke-miterlimit:2;"><path d="M75.162,70.173c10.764,-17.395 28.896,-32.592 47.757,-44.008c25.989,-15.73 52.391,-24.463 52.78,-24.591c8.298,-2.738 17.364,-1.877 24.999,2.374c7.634,4.251 13.141,11.504 15.183,20.001c0.096,0.398 6.578,27.44 6.893,57.818c0.123,11.766 -0.751,23.944 -2.993,35.499c18.475,6.877 32.317,14.804 32.619,14.977c7.579,4.349 12.991,11.672 14.925,20.194c1.933,8.522 0.211,17.463 -4.749,24.657c-0.239,0.345 -13.331,19.297 -31.884,36.29c-14.694,13.458 -32.738,25.11 -50.554,29.152c-32.2,7.305 -55.431,-2.608 -70.673,-14.401c-1.256,0.34 -2.569,0.519 -3.911,0.519l-32.732,-0c-6.048,-0 -11.505,-3.632 -13.838,-9.212l-57.822,-138.234c-1.937,-4.63 -1.43,-9.922 1.352,-14.1c2.781,-4.178 7.467,-6.688 12.486,-6.688l46.109,-0c6.279,-0 11.871,3.906 14.053,9.753Z" style="fill:#faf8f4;"/><path d="M201.298,27.458c-0,0 6.178,25.639 6.477,54.465c0.216,20.777 -2.843,42.994 -12.111,59.638c-31.58,56.714 -89.99,41.843 -89.99,41.843c-2.937,-0.723 -5.615,-2.252 -7.731,-4.415c0,0 -42.413,-42.905 -11.576,-98.287c9.268,-16.644 26.543,-30.945 44.319,-41.704c24.661,-14.927 49.71,-23.178 49.71,-23.178c4.317,-1.426 9.033,-0.978 13.004,1.233c3.972,2.212 6.836,5.985 7.898,10.405Zm-15.806,3.797c0,0 -64.922,21.435 -84.923,57.355c-24.778,44.5 8.992,79.011 8.992,79.011c0,-0 46.597,11.476 71.901,-33.968c20.001,-35.92 4.03,-102.398 4.03,-102.398Z" style="fill:#526f42;"/><path d="M185.492,31.255c0,0 15.971,66.478 -4.03,102.398c-25.304,45.444 -71.901,33.968 -71.901,33.968c0,-0 -33.77,-34.511 -8.992,-79.011c20.001,-35.92 84.923,-57.355 84.923,-57.355Z" style="fill:#bcda8a;"/><path d="M250.224,168.582c0,0 -12.251,17.792 -29.664,33.741c-12.759,11.686 -28.271,22.075 -43.74,25.585c-53.474,12.131 -77.032,-33.071 -77.032,-33.071c-1.423,-2.67 -2.072,-5.684 -1.876,-8.703c0,0 3.009,-50.883 55.2,-62.724c15.47,-3.509 33.946,-0.831 50.499,4.205c22.591,6.873 41.32,17.637 41.32,17.637c3.944,2.261 6.76,6.071 7.765,10.504c1.006,4.433 0.11,9.084 -2.472,12.826Zm-13.38,-9.23c0,-0 -47.812,-27.423 -80.135,-20.09c-40.045,9.085 -42.576,47.929 -42.576,47.929c-0,0 18.197,34.142 59.09,24.864c32.323,-7.333 63.621,-52.703 63.621,-52.703Z" style="fill:#526f42;"/><path d="M236.844,159.352c0,-0 -31.298,45.37 -63.621,52.703c-40.893,9.278 -59.09,-24.864 -59.09,-24.864c-0,0 2.531,-38.844 42.576,-47.929c32.323,-7.333 80.135,20.09 80.135,20.09Z" style="fill:#bcda8a;"/><path d="M110.989,187.905c-0.103,-0.454 -0.475,-2.097 -0.346,-5.808c0.023,-0.674 0.268,-1.349 0.613,-1.929c0.238,-0.401 0.61,-0.819 1.069,-0.901l87.525,-14.827c0.813,0.163 1.736,0.051 2.437,0.493c0.015,0.009 1.414,1.94 1.413,1.949c-0.144,0.783 -0.014,1.674 -0.439,2.348c-0.441,0.701 -1.19,1.261 -1.984,1.496l-85.356,24.394c-1.691,-0.433 -1.93,-0.277 -2.738,-1.827c-1.718,-3.292 -2.091,-4.935 -2.194,-5.388Z" style="fill:#526f42;"/><path d="M200.554,167.585l-86.421,19.606" style="fill:none;"/><path d="M106.062,169.529c-0.404,-0.236 -1.857,-1.083 -4.39,-3.866c-0.478,-0.525 -0.755,-1.237 -0.894,-1.933c-0.104,-0.528 -0.092,-1.146 0.192,-1.602l65.703,-104.112c0.793,-0.58 1.431,-1.486 2.381,-1.736c0.017,-0.005 2.864,0.362 2.87,0.369c0.574,0.767 1.472,1.379 1.716,2.306c0.25,0.95 0.118,2.058 -0.339,2.928l-58.29,108.436c-0.433,0.319 -0.789,0.787 -1.3,0.955c-0.674,0.222 -1.431,0.332 -2.123,0.174c-3.669,-0.836 -5.122,-1.683 -5.526,-1.919Z" style="fill:#526f42;"/><path d="M169.982,59.958l-61.987,106.257" style="fill:none;"/><path d="M72.822,213.654l-57.822,-138.234l46.109,-0l34.348,103.255l-10.186,0.997l35.418,-104.252l45.552,-0l-60.687,138.234l-32.732,-0Z" style="fill:#5c4b3b;fill-rule:nonzero;"/></svg>