<?xml version="1.0" encoding="UTF-8" standalone="no"?><!DOCTYPE svg PUBLIC "-//W3C//DTD SVG 1.1//EN" "http://www.w3.org/Graphics/SVG/1.1/DTD/svg11.dtd"><svg width="100%" height="100%" viewBox="0 0 293 265" version="1.1" xmlns="http://www.w3.org/2000/svg" xmlns:xlink="http://www.w3.org/1999/xlink" xml:space="preserve" xmlns:serif="http://www.serif.com/" style="fill-rule:evenodd;clip-rule:evenodd;stroke-linejoin:round;stroke-miterlimit:2;"><path d="M229.219,15.328c0,0 7.602,31.546 7.97,67.013c0.266,25.565 -3.499,52.9 -14.901,73.378c-38.856,69.781 -110.723,51.484 -110.723,51.484c-3.615,-0.89 -6.909,-2.771 -9.512,-5.431c-0,-0 -52.186,-52.791 -14.243,-120.933c11.403,-20.478 32.657,-38.074 54.529,-51.313c30.343,-18.366 61.163,-28.518 61.163,-28.518c5.311,-1.753 11.114,-1.203 16,1.518c4.887,2.721 8.411,7.364 9.717,12.802Zm-19.446,4.672c-0,0 -79.88,26.374 -104.489,70.569c-30.488,54.753 11.063,97.215 11.063,97.215c0,-0 57.333,14.119 88.467,-41.795c24.609,-44.195 4.959,-125.989 4.959,-125.989Z" style="fill:#526f42;"/><path d="M209.773,20c-0,0 19.65,81.794 -4.959,125.989c-31.134,55.914 -88.467,41.795 -88.467,41.795c0,-0 -41.551,-42.462 -11.063,-97.215c24.609,-44.195 104.489,-70.569 104.489,-70.569Z" style="fill:#bcda8a;"/><path d="M289.418,188.966c0,0 -15.074,21.892 -36.498,41.515c-15.699,14.378 -34.784,27.161 -53.818,31.479c-65.794,14.926 -94.779,-40.69 -94.779,-40.69c-1.751,-3.285 -2.55,-6.993 -2.308,-10.708c-0,0 3.702,-62.606 67.918,-77.175c19.034,-4.318 41.766,-1.023 62.133,5.174c27.795,8.456 50.84,21.7 50.84,21.7c4.852,2.782 8.317,7.469 9.554,12.924c1.237,5.454 0.134,11.177 -3.042,15.781Zm-16.462,-11.356c-0,-0 -58.828,-33.741 -98.599,-24.718c-49.27,11.177 -52.385,58.971 -52.385,58.971c0,0 22.39,42.008 72.705,30.593c39.77,-9.023 78.279,-64.846 78.279,-64.846Z" style="fill:#526f42;"/><path d="M272.956,177.61c-0,-0 -38.509,55.823 -78.279,64.846c-50.315,11.415 -72.705,-30.593 -72.705,-30.593c0,0 3.115,-47.794 52.385,-58.971c39.771,-9.023 98.599,24.718 98.599,24.718Z" style="fill:#bcda8a;"/><path d="M118.104,212.741c-0.126,-0.559 -0.585,-2.579 -0.426,-7.146c0.075,-2.146 0.423,-2.103 2.072,-3.482l107.686,-18.243c1.001,0.201 2.137,0.063 3,0.606c0.015,0.01 1.74,2.387 1.738,2.396c-0.178,0.964 -0.016,2.062 -0.539,2.891c-0.543,0.863 -1.466,1.552 -2.444,1.842l-105.016,30.012c-2.082,-0.532 -2.379,-0.343 -3.372,-2.247c-2.114,-4.051 -2.572,-6.071 -2.699,-6.629Z" style="fill:#526f42;"/><path d="M228.304,187.74l-106.332,24.123" style="fill:none;"/><path d="M112.042,190.132c-1.055,-0.76 -2.19,-1.419 -3.166,-2.279c-0.354,-0.311 -2.874,-2.53 -3.335,-4.857c-0.129,-0.65 -0.113,-1.411 0.237,-1.972l80.838,-128.095c0.976,-0.714 1.762,-1.831 2.931,-2.139c0.017,-0.004 3.523,0.446 3.529,0.453c0.707,0.945 1.813,1.698 2.114,2.839c0.307,1.17 0.144,2.534 -0.419,3.604c-23.519,44.674 -47.808,88.938 -71.713,133.407c-0.907,1.688 -3.863,1.43 -4.217,1.399c-1.108,-0.096 -2.206,-0.361 -3.257,-0.726l-3.542,-1.634Z" style="fill:#526f42;"/><path d="M190.688,55.316l-76.267,130.738" style="fill:none;"/><g transform="matrix(320.466,0,0,320.466,-3.9207,244.422)"><path d="M0.234,-0l-0.222,-0.531l0.177,0l0.132,0.397l-0.039,0.004l0.136,-0.401l0.175,0l-0.233,0.531l-0.126,-0Z" style="fill:#5c4b3b;fill-rule:nonzero;"/></g><g transform="matrix(320.466,0,0,320.466,189.961,244.422)"></g></svg>